<svg width="64" height="94" viewBox="0 0 64 94" fill="none" xmlns="http://www.w3.org/2000/svg">
<path d="M32 47L60.2349 69.1641C60.7179 69.5433 61 70.1233 61 70.7373V89.5C61 89.7761 60.7761 90 60.5 90H3.5C3.22386 90 3 89.7761 3 89.5V70.7373C3 70.1233 3.28206 69.5433 3.76506 69.1641L32 47ZM32 47L60.2349 24.8359C60.7179 24.4567 61 23.8767 61 23.2627V4.5C61 4.22386 60.7761 4 60.5 4H3.5C3.22386 4 3 4.22386 3 4.5V23.2627C3 23.8767 3.28206 24.4567 3.76506 24.8359L32 47Z" stroke="#33363F" stroke-width="2" stroke-linecap="round" stroke-linejoin="round"/>
<path d="M52 79.292V89.85C52 89.9328 51.9328 90 51.85 90H13.15C13.0672 90 13 89.9328 13 89.85V79.292C13 79.1116 13.0972 78.9452 13.2543 78.8565L32.1069 68.2217C32.3509 68.0841 32.6491 68.0841 32.8931 68.2217L51.7457 78.8565C51.9028 78.9452 52 79.1116 52 79.292Z" fill="#33363F"/>
</svg>
