<svg width="191" height="210" viewBox="0 0 191 210" fill="none" xmlns="http://www.w3.org/2000/svg">
<rect width="191" height="210" fill="white"/>
<g clip-path="url(#clip0_397_1026)">
<rect width="119.7" height="153" transform="translate(38 27)" fill="white"/>
<path d="M110.905 145.802L107.901 111.548C107.901 111.548 104.415 115.657 99.8326 116.608C95.2499 117.559 90.8517 114.35 90.7963 114.312C90.7409 114.274 87.0966 110.613 87.0966 110.613L84.7349 145.937C84.7313 146.323 84.6922 146.704 84.6377 147.078L110.967 146.809C110.928 146.478 110.902 146.143 110.905 145.802Z" fill="#F8E6E9" stroke="#1E0A05" stroke-width="1.1474" stroke-miterlimit="10"/>
<path d="M83.8945 108.643C83.8945 108.643 88.7606 129.304 101.535 127.445C110.778 126.099 108.93 107.049 108.93 107.049L83.8945 108.643Z" fill="#1E0A05"/>
<path d="M81.7378 86.4933C81.8704 91.6363 78.1898 95.9243 73.5172 96.0693C68.8456 96.2143 64.9506 92.1633 64.8189 87.0193C64.6871 81.8763 68.3669 77.5883 73.0394 77.4433C77.7111 77.2973 81.6051 81.3493 81.7378 86.4933Z" fill="#F8E6E9" stroke="#1E0A05" stroke-width="1.1474" stroke-miterlimit="10"/>
<path d="M130.892 86.4933C131.024 91.6363 127.344 95.9243 122.672 96.0693C117.999 96.2143 114.105 92.1633 113.973 87.0193C113.841 81.8763 117.521 77.5883 122.194 77.4433C126.865 77.2973 130.76 81.3493 130.892 86.4933Z" fill="#F8E6E9" stroke="#1E0A05" stroke-width="1.1474" stroke-miterlimit="10"/>
<path d="M123.352 72.1542C123.403 83.3102 121.946 92.9462 120.478 99.7872C119.04 106.485 114.93 111.183 109.109 114.978L108.049 115.669C101.889 119.685 93.9083 119.822 87.618 116.02C81.2741 112.185 76.8214 107.108 75.4253 99.9382C72.8864 86.8952 72.5485 72.4362 72.5485 72.4362C72.5485 72.4362 68.9832 42.2612 96.3836 42.6562C123.784 43.0502 123.352 72.1542 123.352 72.1542Z" fill="#F8E6E9" stroke="#1E0A05" stroke-width="1.1474" stroke-miterlimit="10"/>
<path d="M110.568 68.9443C110.568 68.9443 115.97 69.8263 115.518 73.0793C115.518 73.0793 115.421 76.4633 110.488 75.5613C105.555 74.6593 103.139 71.9313 103.372 70.4003C103.699 68.2463 107.968 68.2453 110.568 68.9443Z" fill="#1E0A05"/>
<path d="M83.4461 68.9443C83.4461 68.9443 78.0441 69.8263 78.4955 73.0793C78.4955 73.0793 78.5927 76.4633 83.526 75.5613C88.4592 74.6593 90.8745 71.9313 90.642 70.4003C90.315 68.2463 86.0448 68.2453 83.4461 68.9443Z" fill="#1E0A05"/>
<path d="M108.27 84.9933C109.495 84.9933 110.487 83.9004 110.487 82.5523C110.487 81.2042 109.495 80.1113 108.27 80.1113C107.045 80.1113 106.053 81.2042 106.053 82.5523C106.053 83.9004 107.045 84.9933 108.27 84.9933Z" fill="#1E0A05"/>
<path d="M86.5151 84.9933C87.7397 84.9933 88.7324 83.9004 88.7324 82.5523C88.7324 81.2042 87.7397 80.1113 86.5151 80.1113C85.2906 80.1113 84.2979 81.2042 84.2979 82.5523C84.2979 83.9004 85.2906 84.9933 86.5151 84.9933Z" fill="#1E0A05"/>
<path d="M98.7513 86.7559L99.4026 92.8489H95.4521" stroke="black" stroke-width="1.1474" stroke-miterlimit="10" stroke-linecap="round" stroke-linejoin="round"/>
<path d="M89.1953 97.6953C89.1953 97.6953 91.6833 99.1083 97.1534 99.1083C103.485 99.1083 105.661 97.6953 105.661 97.6953" stroke="black" stroke-width="1.0725" stroke-miterlimit="10" stroke-linecap="round" stroke-linejoin="round"/>
<path d="M96.0469 103.379H99.8156" stroke="black" stroke-width="1.0725" stroke-miterlimit="10" stroke-linecap="round" stroke-linejoin="round"/>
<path d="M119.212 44.148L96.8909 39.709L75.0986 44.148L73.2783 51.589L73.727 60.167C73.727 60.167 75.888 50.437 83.4091 52.375C85.1831 52.832 87.306 53.588 89.7885 54.1C92.1075 54.615 94.3175 54.848 96.4022 54.885C96.6483 54.892 96.9036 54.885 97.1543 54.887C97.405 54.886 97.6602 54.892 97.9064 54.885C99.992 54.849 102.201 54.615 104.52 54.1C107.003 53.589 109.172 52.988 110.899 52.375C117.872 49.902 120.441 59.724 120.441 59.724L121.031 51.589L119.212 44.148Z" fill="#1E0A05"/>
<path d="M79.4144 45.961C79.4144 45.961 68.427 44.204 66.5685 55.161C64.7101 66.118 73.2785 86.756 73.2785 86.756L72.2539 70.807C71.6072 63.914 73.0841 56.983 76.4477 51.126L79.4144 45.961Z" fill="#1E0A05"/>
<path d="M114.024 43.6876C114.024 43.6876 127.393 39.5766 128.908 55.1616C129.983 66.2306 122.761 84.9936 122.761 84.9936L122.984 80.2986C124.064 67.3086 122.068 58.8546 114.024 43.6876Z" fill="#1E0A05"/>
<path d="M123.945 54.2474C123.945 54.2474 103.153 41.1144 74.6486 53.2024C74.6486 53.2024 61.2396 35.3664 82.078 28.3644C99.8162 22.4054 122.032 36.8664 123.945 54.2474Z" fill="#1E0A05"/>
<path d="M143.659 152.945L110.723 141.715H97.9301H97.7993H85.0061L52.0703 152.945C52.0703 152.945 38 158.412 38 180.281H97.7993H97.9301H157.729C157.73 158.412 143.659 152.945 143.659 152.945Z" fill="#87F7CD" stroke="#1E0A05" stroke-width="1.1474" stroke-miterlimit="10"/>
<path d="M85.5444 141.532L74.9268 145.152C74.9268 145.152 78.3521 159.592 97.9298 159.592C117.507 159.592 119.848 144.826 119.848 144.826L109.768 141.389" fill="#F8E6E9"/>
<path d="M85.5444 141.532L74.9268 145.152C74.9268 145.152 78.3521 159.592 97.9298 159.592C117.507 159.592 119.848 144.826 119.848 144.826L109.768 141.389" stroke="#1E0A05" stroke-width="1.1474" stroke-miterlimit="10"/>
<path d="M85.5997 140.741L85.1982 145.919L92.4559 145.651L110.336 145.294L109.926 140.459L85.5997 140.741Z" fill="#F8E6E9"/>
</g>
<defs>
<clipPath id="clip0_397_1026">
<rect width="119.7" height="153" fill="white" transform="translate(38 27)"/>
</clipPath>
</defs>
</svg>
